<svg width="591" height="296" viewBox="0 0 591 296" fill="none" xmlns="http://www.w3.org/2000/svg">
<path d="M129.1 7.20001C128.4 11.2 126.4 18.8 124.7 24L121.5 33.5L110.5 34.6C104.5 35.3 91.7 36.5 82.2 37.4C72.7 38.3 64.4 39.3 63.7 39.6C62.9 39.9 62.6 41.5 62.8 44C63 46.2 63 48 62.7 48C62.3 48 54.3 46.4 44.8 44.5C24.2 40.4 -1.60005 36.9 0.099953 38.4C0.299953 38.6 13.8 41.3 30 44.4C46.2 47.6 60.5 50.5 61.6 51C63.6 51.8 63.8 52.7 64.2 65.9C64.4 73.6 64.9 80.2 65.2 80.6C65.5 80.9 67.5 80.1 69.7 78.8C76.2 74.7 76.4 74.6 75.6 75.8C74.8 77.2 66 82.5 64.5 82.5C62.9 82.5 51.8 89.2 52.4 89.7C52.7 90 55.2 88.8 58 87.1C60.8 85.4 63.5 84 64 84C64.7 84 64.9 91.3 64.8 104.7L64.5 125.3H34C11.2 125.3 6.49995 125.5 15.5 126C22.1 126.4 33.6 126.8 41 126.9C48.4 127 56.8 127.3 59.7 127.6L64.9 128.3L65.2 141.2L65.5 154.2L71.9 146.6C75.5 142.5 78.6 139.3 78.8 139.5C79.8 140.5 73.6 151.2 69.5 155.7L65.1 160.5L65 157.5V154.5L62.2 157.7C60.7 159.5 56.8 164 53.5 167.9L47.5 174.8L40 175.5C27.3 176.8 22.2 178 32 177.5C36.7 177.2 46.2 176.7 53.2 176.4L65.8 175.7L66.5 182.6C67.6 194.4 70.2 214.5 70.7 215.2C70.9 215.7 72.6 216.1 74.3 216.1C76.1 216.2 76.8 216.4 75.9 216.7C74.4 217 74.2 220.2 73.6 242.8C73.3 256.9 72.7 274.8 72.4 282.4L71.8 296.3L80.1 295.7C84.7 295.3 91.4 295 94.8 295H101.2L100.5 288.7C100.1 285.3 99.7 282.4 99.6 282.3C99.5 282.2 95.7 282.7 91.2 283.4L83 284.7V273.8V262.8L86.5 263.2C88.4 263.4 89.9 263.2 90 262.7C90 262.3 90 259.7 90 257V252H86.1H82.3L81.6 240.5C81.2 234.1 81.2 228.5 81.5 228C81.8 227.4 84.2 227 86.7 227H91.3L90.6 221.8L89.9 216.7L104.5 217.3C120.8 217.9 121.2 217.7 114.1 212.3C109.1 208.4 101.5 206 94.4 206H89.3L88.7 202.2C86.5 188.2 85.9 169.8 87 150.2C87.6 138.8 88.3 129.3 88.6 129.1C88.8 128.9 92 128.7 95.8 128.8C103.2 128.9 103.1 128.5 95.5 127.5L90.5 126.8L93.4 125.3C102.1 120.7 107.1 119.8 129 118.9C140.8 118.4 152.8 117.9 155.7 117.8L160.9 117.5L157.2 121.3C151.3 127.4 144.9 129.7 125.8 133C116.3 134.6 106.4 136.7 103.8 137.5C99.2 139.1 99.1 139.3 97.9 144.8C95.4 156.7 96.5 174.8 100.7 190.1C102.4 196.6 100 195.6 122.5 199C144.3 202.2 161.2 203.3 181.3 202.7L200 202.2V204.4C200 209 198.2 209.9 187.3 210.6C181.6 211 177 211.5 177 211.7C177 211.9 178.6 213.8 180.5 215.8C183.9 219.5 184 219.5 193 219.8C197.9 220 202 220.5 202 220.8C202 223.8 199.7 234.7 198.9 235.6C198.3 236.3 198.1 238.3 198.5 240.2C199.1 243.7 194.8 280.5 193.7 281.7C193.3 282 193 272.1 193 259.7V237H190.5C189.1 237 187.7 236.9 187.3 236.7C186.6 236.4 186.8 265.1 187.6 269.7C188 271.5 187.8 273 187.3 273C185.9 273 182.8 245.6 182.6 231.6L182.5 219.5L169.7 219.2L156.9 218.9L160.7 222.7C162.8 224.8 166.3 228.7 168.5 231.4L172.5 236.3L173.4 263.1C174.3 288.9 174.4 289.9 176.4 290.4C177.5 290.7 178.6 290.7 178.8 290.5C179 290.3 179.4 282.9 179.7 274.1C180 265.2 180.4 258.1 180.6 258.2C180.7 258.4 181.6 265 182.6 273C183.5 281 184.6 287.8 184.9 288.2C185.2 288.5 187.3 289 189.5 289.2C193.1 289.5 193.5 289.2 194 287C194.4 285.1 195.2 284.5 197.4 284.3C201.1 284 201.3 283.8 201.9 278.7C202.5 274.7 202.7 274.5 206.3 274.2C209.9 273.9 210 274 210 277.2C210 281.4 210.9 282.6 214.3 283.2C217.6 283.8 217.6 284.7 214.9 263.2C213.1 248.3 213 245.5 214.1 237L215.4 227.5L216.6 237.5C217.3 243 218.3 254.7 219 263.5C219.6 272.3 220.4 281.4 220.6 283.7L221.1 288H227.1H233V284.5C233 281.1 232.8 281 229.4 281H225.8L226.2 255.1C226.5 231.1 226.4 229.1 224.7 227.2C223.6 226.1 222.2 225.4 221.4 225.7C220.6 226 219.8 225.2 219.4 223.6C218.7 220.6 215.1 220 213 222.5C211.3 224.6 210 224.4 210 222C210 220.9 210.6 220 211.4 220C212.4 220 212.9 216.5 213.6 205.1C214.2 196.9 214.4 188.3 214.2 186.1L213.8 182H203.4C197.1 182 193 181.6 193 181C193 180.4 197 180 202.9 180C212.9 180 214.6 179.5 213 177.1C212.4 176 207.3 175.8 188.3 175.9C164.2 176.1 148.2 175.3 149.7 174C150.1 173.6 160.5 169.3 172.7 164.5C185 159.6 194.8 155.5 194.6 155.3C194.3 154.9 159.4 167.3 149.6 171.3C146.4 172.7 144.3 174 145.1 174.2C147.1 174.9 146.7 175.1 134.3 180.2C121.1 185.5 120.4 184.6 133.2 178.5L142.1 174.3L137.8 173.4L133.5 172.5L130.3 163.5C125 148.4 125.1 148.4 142.5 147C149.7 146.5 157.8 145.5 160.6 145L165.7 143.9L166.4 129.9C166.8 122.1 166.9 115.6 166.7 115.3C166.4 115.1 165.3 115.3 164.2 115.9C163.1 116.5 162 116.6 161.6 116.3C161.3 115.9 162.3 115.1 164 114.4C166.6 113.2 167 112.6 167 109C167 106.7 166.7 105.1 166.3 105.3C165.8 105.6 157.4 106.5 147.5 107.4C137.6 108.3 127.9 109.2 126 109.5L122.5 109.9L125.5 107.5C129.2 104.5 128.2 104.3 122.9 107C120.7 108.2 118.5 108.8 118 108.5C117.4 108.2 117 104.8 117 101.1V94.3L128.8 93.1C135.2 92.5 143.3 91.7 146.7 91.3C150.1 91 152.7 90.3 152.4 89.9C152.1 89.4 153.1 89 154.7 88.9C157.1 88.9 157.2 88.8 155.5 88.1C154.4 87.6 146.5 85.8 138 84C129.5 82.2 121.8 80.5 121 80.2C119.8 79.9 119.7 80 120.9 80.8C121.6 81.3 128.1 83.3 135.1 85.1C142.2 86.9 148 88.7 148 89C148 89.7 117.9 93.2 117.3 92.6C117 92.4 117.2 86.4 117.7 79.3L118.5 66.5H148.6C171.9 66.5 179 66.2 180.3 65.2C181.9 63.8 184.7 49.5 187.6 27.6C187.9 25.4 188.8 22.3 189.6 20.7C190.5 19.1 191 17.6 190.8 17.4C190.5 17.2 183.7 19.1 175.6 21.6C167.5 24.1 154.7 27.4 147.2 28.9L133.5 31.6L132.6 15.8C132.2 7.10001 131.5 5.45382e-06 131.1 5.45382e-06C130.7 5.45382e-06 129.8 3.30001 129.1 7.20001ZM168.3 43.5C170.5 51.6 170.5 51.7 166.3 52.3C161.4 53.2 148.4 53.2 139.8 52.3L133 51.7V46.9C133 44.2 133.1 41.9 133.3 41.8C133.6 41.6 163 40.3 165.5 40.4C166.8 40.5 167.8 41.5 168.3 43.5ZM114.8 44C113.1 46.7 105.2 50.8 100.1 51.6C95.3 52.4 92.7 55.1 88.6 64C85.9 69.8 84.5 75.7 80.9 96C77.9 113 76.9 114.8 77.5 102C77.7 96.2 78.3 83.4 78.6 73.5C78.9 63.6 79.4 55.2 79.6 54.8C79.8 54.5 81 54.4 82.3 54.6C84.3 55 84.3 55 82 53.8C78.5 52.1 78.6 52.2 80 50.5C81.7 48.5 92.4 45.3 103.5 43.6C116.3 41.6 116.3 41.6 114.8 44ZM116 94C115.2 94.5 113.6 94.9 112.5 94.9C110.9 94.8 110.9 94.7 113 94C116.5 92.9 117.8 92.9 116 94ZM65.9 169.6L66 173.7L57.8 174.2C53.2 174.5 49.4 174.6 49.2 174.5C49 174.4 52.4 171.3 56.7 167.7C65.4 160.5 65.7 160.5 65.9 169.6ZM223.3 229.4C223.9 231 223.1 232.2 221.9 231.4C220.7 230.7 220.8 228 221.9 228C222.4 228 223 228.6 223.3 229.4ZM207.9 264.2C208 266.4 207.5 267 206 267C203.7 267 203.5 263.9 204.7 251.5L205.4 244.5L206.6 253C207.3 257.7 207.9 262.7 207.9 264.2Z" fill="white"/>
<path d="M257.5 7.4C255.9 8.1 251.6 10.6 248.1 12.9C244.6 15.1 240.9 17 239.9 17C239 17 236.3 18.6 234 20.5C231.7 22.4 229.4 24 229 24C228.5 24 227 24.4 225.7 24.9L223.2 25.9L224.6 33.2C225.4 37.2 227.1 43.9 228.6 48.2C230.9 55.2 231.4 55.9 233 55C235.9 53.4 236.5 53.8 234.5 56C233.3 57.4 232.3 57.7 231.5 57C230.7 56.4 222.8 59.1 206.4 65.6C193.3 70.9 182.3 75.4 182 75.7C181 76.8 194.8 74.9 201.6 73.1C210.1 70.7 220.7 66 226.7 62C229.1 60.3 231.5 59 231.9 59C234.1 59 246.5 101.8 244.8 103.5C244.5 103.8 236.5 106.3 227 109C210.3 113.8 206.9 115 210.3 115C212.1 115 241.7 106.2 244.1 104.9C245.5 104.2 245.8 106.5 246.4 126.8C246.8 139.3 247.4 151.3 247.8 153.5L248.6 157.5L253.4 146C256 139.7 259.2 132.5 260.4 130C261.7 127.5 263 124.2 263.4 122.6C263.8 121.1 264.3 120 264.6 120.3C264.9 120.6 263 128.3 260.4 137.5C256.5 151.3 255.1 154.9 252.1 158.5C249.5 161.7 248.4 162.5 248 161.5C247.7 160.6 245.8 163.3 243.2 168.5C238.7 177.6 238.6 178 239.8 178C240.3 178 242.1 174.8 244 171C245.9 167.1 247.7 164 248.2 164C248.6 164 249 165.7 249 167.9C249 170 249.3 173.2 249.6 174.9C250.2 178 250.2 178 246 178C242.4 178 241.3 178.6 237.9 182.1C235.8 184.3 234 186.7 234 187.3C234.1 188 235.1 187.3 236.3 185.7C238 183.7 239.5 183 242 183C247.3 183 250 182 250 180C250 178.1 255.2 177 263.9 177C270 177 267.8 178.4 258.3 180.6C251.5 182.1 251 182.4 251 184.9C251 189.1 256.7 216.1 257.9 217.3C258.5 217.9 260.9 216.4 265.1 212.4C272 205.8 271.9 206.5 264.6 215.9C260.5 221.1 259.4 222 258.6 220.8C257.7 219.5 256.2 220.5 250 226.3C243.6 232.2 242.9 233.2 245.3 232.8C248.6 232.2 247.9 229.5 252.5 260.5C257 291.2 256.3 288.5 260 288.5C263.6 288.5 262.9 291.1 267 260C268.6 247.6 270.2 236.3 270.5 234.7C270.9 232.2 270.7 232 267.6 232H264.3L262.5 244.2C259.7 262.9 259.7 263 257.1 246.2C255.2 233.8 254.5 231 253.2 231C252 231 252.7 229.9 255.2 227.3C258.6 224 259.1 223.7 260.2 225.2C261.2 226.4 264.4 226.9 275.5 227.4C290.1 228 295.9 228.8 294.1 229.9C293 230.6 294.3 285.1 295.5 287C295.8 287.6 297 288 298.1 288C299.9 288 300 287.2 300.2 276.2C300.2 269.8 300.5 266.1 300.7 268C301.6 276 305.5 280 312.4 280C320.5 280 324 275.8 324 266V260H319.5H315V265.4C315 271.4 313.5 273.4 311.3 270.4C310.3 269 310 264.6 310.2 251C310.5 234.3 310.6 233.5 312.5 233.5C314.1 233.5 314.6 234.3 314.8 237.2C315.1 241 315.2 241 319.6 241H324V234.1C324 228.7 323.6 226.7 321.9 224.6C319.8 222 319.8 221.9 321.6 215.2C324 205.9 326 202.3 332 196.5C338.2 190.4 344 178.6 347.7 164.5C349 159.6 351.9 151.9 355.7 143.2C356.1 142.3 352 142 336.9 142H317.5L315.8 139C314.9 137.3 313.5 136 312.8 136C312.1 136 309.8 135.1 307.7 134C304.3 132.2 303.2 132.1 298.1 133C294.9 133.6 291.5 133.8 290.6 133.4C289.7 133.1 289 133.3 289 133.9C289 134.5 288.2 135 287.3 135C285.6 134.9 285.6 134.9 287.3 133.9C288.8 133 289 132 288.4 126.7C287.5 118.6 286.6 116.9 285 120.1C284.3 121.4 282.7 123.6 281.5 125C280.2 126.4 279 128.4 278.8 129.5C278.6 130.6 277.8 131.5 277 131.5C276.2 131.5 275.7 130.8 275.9 130C277.8 122.7 278.7 120.3 280 118.9C280.8 117.9 282.4 115.9 283.4 114.4L285.4 111.6L286.5 114.3L287.6 117L291.1 113.4L294.5 109.8L290.3 110.5C285.7 111.2 286 111.7 283.9 101.7C282.7 95.9 281.6 94.6 280.6 97.8C280.2 98.8 278.4 101.2 276.5 103.1C274.6 104.9 273 107 273 107.6C273 109.3 266.7 117.6 266.3 116.4C265.4 113.7 276.9 85 278.8 85C279.3 85 280.2 87.2 280.9 90C281.6 92.7 282.6 95 283 95C284.1 95 285.7 89.8 286.6 83.5C287.3 78.6 287.2 78.5 285.3 80.2C284.3 81.2 282.4 82.1 281.1 82.2C279.1 82.5 278.5 81.6 276.1 75C274.6 70.9 272.3 65.6 271.1 63.2C269.4 59.9 268.1 52.9 265.4 33.3C263.5 19.2 262 7.3 262 6.9C262 5.7 261.1 5.8 257.5 7.4ZM290 139.5C290 143 290.8 143.8 292.6 142.1C293.1 141.6 294.4 140.9 295.5 140.6C297.3 140.1 297.6 140.4 297.4 142.7C297.3 144.3 297.2 145.8 297.1 146.2C296.9 147.7 290.9 147 290.4 145.5C290 144.7 289.4 144 288.9 144C288.4 144 288 144.7 288 145.5C288 146.3 288.7 147 289.5 147C290.5 147 291 148.1 291 150.5C291 154.5 290.2 154.8 287.2 152C284.4 149.4 284.1 140.7 286.7 137.8C289.1 135.1 290 135.6 290 139.5ZM317 144.4C317 146.3 316.6 146.6 314.5 146.2C311.7 145.7 311.4 145 313.2 143.2C315.1 141.3 317 141.8 317 144.4ZM310.4 147.3C309.8 149.1 310.1 149.2 314.4 148.8C317 148.5 319 148.7 319 149.2C319 149.7 318.6 149.8 318 149.5C317.4 149.1 317 150.1 317 151.7C316.9 156.3 314.9 158 309.6 158C304.5 158 304.1 157.4 307 153.7C309.4 150.7 309.6 149 307.5 149C306.7 149 306 148.2 306 147.2C306 144.7 306.7 144.1 309.1 144.7C310.5 145.1 310.9 145.8 310.4 147.3ZM299 157.2C301.5 157.9 303.7 158.5 303.9 158.7C304.1 158.8 302.9 161.3 301.3 164.2C299.6 167.1 297.8 171.2 297.1 173.2C296.4 175.2 295.3 177.3 294.6 177.9C293.5 178.8 293.1 177.2 292.5 169.3C292.2 163.9 291.6 158.4 291.3 157.1C290.8 155.1 291 154.8 292.6 155.3C293.6 155.6 296.5 156.5 299 157.2ZM341.5 160C343.7 161.1 344.4 161.7 343 161.4C339.2 160.4 334.3 158.2 336 158.1C336.8 158.1 339.3 158.9 341.5 160Z" fill="white"/>
<path d="M350.3 7.69997L347 8.09997L347.1 14.3C347.2 19.8 347.3 20.1 348.1 17.3C348.8 15 350.1 13.6 353.4 12C357.7 9.89997 358 9.89997 366.7 11.5C377 13.4 383.1 15 384.4 16.1C385.4 17 385.5 17.6 386.6 28.6C387.2 35.1 387 36 385.1 37.9C382.9 40.1 382.4 43.5 383.9 45.8C384.8 47.3 388.2 40.2 392.9 26.8C394.6 22.1 396.8 16.2 397.9 13.7L399.8 9.29997L393.2 8.69997C383.6 7.79997 354.1 7.09997 350.3 7.69997Z" fill="white"/>
<path d="M276.3 13C273.1 14.3 271.9 17.2 271.6 24.5C271.2 32.9 272.6 35 278.5 35C282.1 35 283.3 34.5 285.4 31.9C288 28.8 288.3 27.5 288 20.5C287.7 13.7 282.6 10.5 276.3 13Z" fill="white"/>
<path d="M498.5 17.7C496.9 17.9 489 19.2 481 20.5C473 21.8 463.4 23.2 459.5 23.6C451.6 24.4 449.1 25.4 440.3 31.6C436.9 34 431.4 37.8 428.1 40C424.7 42.2 422 44.5 422 45.1C422 45.7 420 49.3 417.5 53.1C411.4 62.6 409.4 66.6 408.2 72.7C407.6 75.5 405.2 82.7 402.9 88.7C397.4 103 396 108.3 396 115.3V121L390.3 118.1C387.1 116.5 380.5 113.8 375.5 112.1C370.6 110.3 366.4 108.7 366.2 108.6C365.8 108.1 371.6 90.7 373 87.9C374 86.1 373.6 86 365 86C356.2 86 355.9 85.9 355 83.4C354.4 82 354 80.7 354 80.4C354 80.1 357.3 80.2 361.3 80.5C371 81.3 374.2 80.3 375.3 76.1C375.8 74.1 375.7 72.3 375.2 71.8C374.7 71.3 371.3 70.4 367.7 69.7C359.8 68.4 359.9 68.5 360.7 54.8C361.3 45.4 361.2 44.8 358.9 42.4C357.6 41.1 354.6 39.4 352.2 38.8L347.8 37.7L348.5 33.1C349.1 28.9 349 28.7 347.7 30.4C346.4 32.2 346.3 31.9 346.7 26.9C347 23.2 346.8 22 346.2 23C344.8 25.2 343.5 36.4 344.7 35.7C346.3 34.7 348.6 39.8 347.2 41.2C346.3 42.1 346 41.8 346 39.7C346 35.6 344.2 36.5 343 41.2C341.4 47.6 339 52.6 336.5 55C334.5 56.9 334.1 56.9 330.7 55.5C324.6 53 315.5 53.5 308.4 56.9C305 58.5 302 60.3 301.6 60.8C301.2 61.4 299.4 61.6 297.5 61.3C294.7 60.9 293.7 61.2 291.4 63.6C289 66.2 288.8 66.3 289.2 64.3C289.8 62.2 289.7 62.2 287.3 63.7C284.5 65.6 284.4 69.6 287.3 69.3C288.6 69.2 289 69.7 288.6 70.7C288.2 71.5 287.7 73.4 287.3 74.8C286.8 77 286.9 77.3 288.1 76.4C288.9 75.7 290.3 75.6 291.5 76.1C294.7 77.3 294.8 77.3 297.6 71.7C299 68.9 301 65.7 301.9 64.6C304.7 61.4 310.3 59.3 317.5 58.6C323.5 58.1 325 58.3 327.8 60C329.5 61.1 331 62.4 331 62.9C331 63.3 329.8 65.9 328.4 68.4C326.6 71.7 326.1 73.5 326.8 74.2C327.5 74.9 328 74.3 328.5 72.2C328.8 70.6 331.6 66.1 334.6 62.4C337.7 58.6 341.3 53.6 342.7 51.2C345.3 46.8 346.5 45.8 345.6 48.7C345.4 49.7 344.9 53.1 344.5 56.4L343.8 62.2L340.8 61.6C338.5 61.2 337.4 61.5 336.4 62.7C334.5 65.3 334.6 65.5 338.2 65.8C342.8 66.2 343.4 67.1 342.1 73C340.6 80 340.6 79.8 344.5 80.6C346.4 80.9 348 81.6 348 82.1C348 82.6 349.1 83.6 350.5 84.2C354.2 85.9 353.5 87 348.8 87C342.1 87 340 87.9 340 90.6C340 92.3 339.6 92.8 338.5 92.4C337.6 92 337 92.4 337 93.4C337 95.8 333.9 103 332.9 103C332.4 103 332 102.1 332 101C332 95.8 327 91.2 322.8 92.6C320.9 93.2 320.9 93.1 322.5 90.6C323.4 89.2 324 87.5 323.8 86.8C323.6 86.2 322.5 87.7 321.4 90.3C319.1 96.1 317.6 96.7 313.9 93.6C307.7 88.3 295.6 89.5 291.3 95.9C288.2 100.5 288.4 101.9 291.8 98.7C294.3 96.3 295.4 96 302.5 95.9C307.1 95.8 311.4 96.2 312.7 96.8C313.9 97.5 315.5 97.7 316.3 97.4C317.1 97.1 318 97.6 318.4 98.5C318.8 99.8 318.5 100 317.1 99.5C315.5 99 314.8 100.1 312.4 106.2C310.8 110.2 308.5 114.7 307.1 116.2C305.5 118.2 304.6 120.9 304.1 125C303.7 128.3 303.7 131 304.1 131C305.4 131 309 125.8 309.7 123.1C310 121.7 311 119.1 311.8 117.5C312.7 115.8 313.3 113.9 313.1 113.1C313 112.3 313.3 112.1 314.2 112.6C314.9 113.1 316.1 113.5 316.8 113.6C319.9 114.1 321 115.1 322.9 119.1L325 123.3L321.7 127.4C320 129.6 318.2 131.6 317.8 131.8C314.8 133.1 319.3 133.8 334.8 134.4C356.9 135.2 357.9 135 359.7 128.5C361.7 121.5 362 120.7 362.5 121.2C362.8 121.5 363.7 127.5 364.5 134.5C365.3 141.6 367.1 152.3 368.4 158.4C369.7 164.5 371.1 171.7 371.4 174.4C371.7 177.1 373.1 181.2 374.4 183.5L376.7 187.7L374.1 188.8L371.5 190L374.3 189.4C379.8 188.4 380 189.3 380 211.9C380.1 229.2 380.3 232.2 381.4 230.8C382.5 229.3 382.8 230.4 383.3 238.8C383.7 244.1 384 256.9 384 267.2V286H388.5H393V274.1C393 267.6 393.3 260.9 393.6 259.3C394.1 256.7 394.5 256.5 397.6 256.8L401 257.2V252.1V247H396.5H392V238C392 233 392.4 229 392.9 229C394.3 229 398 235.4 398 237.8C398 238.9 398.5 240.2 399 240.5C400.5 241.5 400.2 218.8 398.5 209.5C397.7 205.1 397.1 201.4 397 201.2C397 201.1 396.3 201 395.3 201C392.4 201 394.9 199.7 398.4 199.3C403.7 198.8 405 201.4 405 212.7C405 220.3 405.4 222.7 407.3 226.2L409.5 230.5L410 221.2L410.5 211.8L418.5 208.8C422.9 207.1 426.7 205.6 426.9 205.4C427.1 205.2 426.6 204.2 425.6 203.1C424 201.4 424.3 201.1 432.5 196.1C437.3 193.3 441.4 191 441.8 191C442.2 191 439.3 194.2 435.5 198L428.5 205.1L431 207C432.3 208 436.4 210.3 440 212.2C443.6 214 446.7 215.6 447 215.8C447.2 216 445.6 217.9 443.2 220.1L439 224.1L436.8 222.1C432.2 217.7 422.6 218.2 417.8 223.1L414.9 226L415.2 248.6L415.5 271.2L418.8 274.1C421.6 276.6 422.8 277 427.8 277C434.6 277 437.6 275.3 439.7 270.2C440.9 267.4 441.1 262.4 440.9 245.6L440.6 224.5L445.3 221.2C448.7 218.7 449.8 217.4 449.1 216.6C448.4 215.7 451.2 212.3 459 204.5C465 198.5 470.2 193.8 470.4 194.1C471.4 195.1 464.2 204.6 457.7 210.8L451.1 217.1L453.8 218.1C469.2 224 497.4 225 514.5 220.4C523.1 218.1 522.9 218 526.2 223.8L529.3 229.1L527.1 231.4C525.6 233 524.6 235.9 524 240.1C523.1 246.3 523.1 246.5 528.7 259.4C533 269.3 534.4 273.7 534.4 277.5C534.5 281.9 534.2 282.5 532.5 282.5C530.8 282.5 530.5 281.7 530.2 277.7C529.9 273.1 529.8 273 526.4 273H523V279.6C523 285.5 523.3 286.4 525.9 289C535.7 298.8 547.9 288.7 544 274C543.3 271.5 540.1 263.9 536.9 257C530.6 243.8 529.6 238.5 533.4 238.5C534.9 238.5 535.5 239.3 535.8 242C536 243.9 536.5 245.7 537 246C537.5 246.3 539.8 251 542.2 256.5C546.1 265.5 546.5 266.2 546.8 263.2C547 260.9 546.1 258.1 543.6 253.6C539.6 246.4 539.4 245.8 541.5 246.6C542.7 247.1 543 246.1 543 240.6C543 235.3 542.6 233.6 541 232C538.5 229.5 534.2 227.7 532.3 228.4C531.5 228.8 529.9 226.8 528 223L525 217L528.3 215.7C534.7 213 540.9 208.4 544 204.1L547.2 199.7L544.4 197.3L541.5 194.8L544.7 196.9L547.8 199L551.3 194.8C556.1 188.8 557.5 185.7 559.4 176.6C560.3 172.2 561.2 168.5 561.4 168.3C561.6 168 566.9 171 573.1 174.9C579.3 178.8 584.6 181.8 584.8 181.5C586 180.4 583.5 175.4 579.8 171.4C575.4 166.6 569.3 162.7 564.7 161.6C562.6 161.1 562 160.5 562.4 159.2C563.1 157 567.1 125.8 566.8 125.4C566.6 125.3 564.9 124.5 563 123.6L559.5 122L563 122.5C564.9 122.8 566.7 123.5 566.9 124.1C567.2 125 575.2 129 576.6 129C578.3 129 575 126.5 571.3 124.8L566.8 122.8L567.5 118.3C567.8 115.8 568.1 103.9 568.1 91.9C568.1 70.3 568.2 69.9 570.3 68.8C571.5 68.3 574.8 65.1 577.5 61.9C580.3 58.6 584.5 54.5 587 52.8C594.2 47.9 589.4 50.2 578.5 56.9C573.1 60.2 568.3 63 567.9 63C567.6 63 567 60.2 566.6 56.9C566.2 53 564.7 48.1 562.5 43.5L559.1 36.3L550.5 32.2C539.4 26.8 538 26.8 538 32C538 34.2 537.6 36 537.2 36C536.8 36 534.9 34.5 533.2 32.7C530.4 29.8 530.1 28.9 530.7 25.9C531 24 532 22 532.8 21.4C534 20.6 533 20 528.3 18.7C522.7 17.1 506.8 16.6 498.5 17.7ZM531.3 45.4C533.9 45.9 535 46.6 534.9 47.8C534.8 50.8 530.5 61.5 529.5 61.3C528.9 61.2 525.2 60.5 521.2 59.9C517.2 59.2 513.7 58.4 513.5 58C512.8 56.9 516.8 45.9 518.6 43.9C520 42.4 520.6 42.3 523.8 43.4C525.9 44.1 529.2 45 531.3 45.4ZM485.3 62.6C489.2 64.6 492.7 66.6 493 67.1C493.3 67.5 495.1 68.2 497 68.5C498.9 68.8 502.2 69.9 504.3 70.9L508.1 72.8L509.1 70.4C509.6 69 510.3 66.8 510.6 65.5C511.3 62.5 511.3 62.5 518.3 64.9C527.9 68.2 527.8 67.9 522.5 74.4L517.8 80.2L520.8 83.4C524.9 87.6 528.6 95.3 529.9 102.2C530.4 105.3 531.4 114.6 532.1 122.9C533.2 137.5 533.1 138.1 531 142.5C525.7 153.4 509.6 160.7 495.6 158.6C491.6 158 491 157.6 491 155.5C491 152.1 489.5 151.6 488 154.5C486.4 157.5 485.7 157.5 475.4 155C464.7 152.5 457.2 149.1 452.1 144.5C445.8 138.8 444.3 135.5 443.5 126.3L442.7 118.1L445.6 118.3C447.9 118.5 448.6 118 448.8 116.3C449.1 114.6 448.6 114.1 446.3 113.8L443.5 113.5L443.7 104.2C444 89 447.9 73.9 453 68.5C454.5 66.8 456 64.8 456.2 64C456.5 63 459.6 62 465.6 60.9C477.8 58.6 477.2 58.6 485.3 62.6ZM346.8 66.3C347.5 67.8 348 70.5 347.8 72.3L347.4 75.5L345.2 71C342.8 66 342.4 62.6 344.3 63.2C344.9 63.5 346.1 64.9 346.8 66.3ZM295 69.8C295 70.3 294.1 71.5 293 72.5C290.8 74.5 290.4 73.9 292 70.9C293.1 69 295 68.3 295 69.8ZM360 95.6C361.1 99.3 362 103.2 362 104.5C362 105.7 362.7 107.3 363.5 108C365.2 109.4 365.5 111 364 111C363.5 111 363 110.3 363 109.4C363 108.2 362.3 108 360.3 108.4C358.7 108.7 356.2 108.3 354.5 107.5L351.5 106L355.7 106.6L359.9 107.2L359.3 103.3C359 101.2 358.2 96.9 357.5 93.8C355.9 86.2 357.4 87.4 360 95.6ZM323.3 97.2C326.5 99 326.9 99.9 327.6 106.2C328.3 112.7 329.3 113.5 330.9 108.8C332.3 104.8 332.9 105.4 332.2 110.2C332 112.6 331.3 114 330.3 114C329.5 114 328.2 115.7 327.4 117.7L325.8 121.3L324 117.2C322.2 113.1 318 110.2 315.9 111.6C314.5 112.4 314.8 111.3 317.1 106.8C318.8 103.4 319.6 100.9 319.9 96.7C320 95.7 320.7 95.8 323.3 97.2ZM362.5 111C362.8 111.5 363.8 112 364.7 112C365.6 112 373 114.6 381.2 117.7L396.1 123.4L395.4 139C394.7 155.8 396 166.1 400.1 175.6C401.2 178.2 401.9 180.4 401.8 180.5C401.3 180.9 383.1 186 382.1 186C381.1 186 377 173.8 377 170.8C377 169.9 375.9 165.9 374.6 161.9C373.3 157.8 371.5 148.6 370.6 141.5C369.8 134.3 368.2 126.2 367.1 123.5C366 120.7 364.8 117.6 364.4 116.5C363.7 114.6 363.6 114.6 363.3 116.7C362.7 120 361 119.5 361 116.1C361 114.5 360.7 112.5 360.4 111.6C359.7 109.9 361.5 109.4 362.5 111ZM418 119.2C418 123.1 419.4 126.2 423.5 131.6C426.7 135.8 427.1 137 426.7 140.3C426.4 142.4 425.4 145 424.5 146C423.5 147.1 423.1 148.6 423.5 149.8C424.3 152.6 422.6 153.3 416.7 152.5C408.8 151.5 408 150.6 407 140.5C406.5 135.7 405.4 130.7 404.6 129.4C402.4 126.2 402.6 125.9 405.5 127.2C406.9 127.8 408.3 129.5 408.6 130.9C410.4 138.8 411.2 141 412.4 141C414.1 141 415 136.5 415 127.5C415 118.6 415.9 113.3 417.1 115.2C417.6 115.9 418 117.7 418 119.2ZM407 125C407.8 125.5 408.2 126.1 407.9 126.4C407.6 126.7 406.5 126.3 405.4 125.5C403.3 123.9 404.6 123.5 407 125ZM562 162.7C562 166.6 560.6 167 556.2 164.4C553.9 163 552 161.7 552 161.4C552 161.2 554.3 161 557 161C561.1 161 562 161.3 562 162.7ZM429 173.4C429 173.6 423.3 175.7 416.4 178L403.7 182.3L413.4 191.8C418.7 197 423 201.4 423 201.5C423 201.8 411 209 410.4 209C410.2 209 410 205.9 410 202V195.1L406.4 194.4C402.8 193.7 388.3 194.6 385.6 195.6C384.7 195.9 384 195.4 383.6 194.1C383.3 192.9 382.8 191.2 382.5 190.1C382.1 188.7 382.6 188.1 385.2 187.6C392.7 186.2 403 182.6 403 181.5C403 180.9 408.3 178.7 414.8 176.8C426.4 173.2 429 172.6 429 173.4ZM515.7 202.2C521.5 210 525.2 216.7 524.1 217.4C523.5 217.8 522.5 217 521.7 215.8C518.1 209.9 511 197.7 511 197.4C511 196.3 512.1 197.5 515.7 202.2ZM391 208.9C391.5 210 392 212.9 392 215.4V220H388.1C384.4 220 384.2 219.9 383.6 216C382.6 209.7 383.7 207 387.1 207C388.9 207 390.3 207.7 391 208.9ZM430.8 250.9C430.5 266.7 430.4 267.5 428.5 267.5C426.6 267.5 426.5 266.7 426.2 250.6C425.9 233.3 426.5 230.5 429.7 233.2C430.7 234 431 238.2 430.8 250.9Z" fill="white"/>
<path d="M521.8 49.1C515.5 52.3 517.7 56 525.9 56C529 56 530.2 55.5 531.1 53.8C532.1 51.9 531.9 51.3 529.6 49.3C526.4 46.6 526.5 46.6 521.8 49.1Z" fill="white"/>
<path d="M461 66.5C461 68.5 461.5 69 463.3 69C466.6 69 467.3 68 465.3 65.8C463 63.2 461 63.5 461 66.5Z" fill="white"/>
<path d="M515 68.3C515 68.4 514.6 70 514 71.9L513.1 75.3L515.5 73C518.3 70.4 518.8 68 516.5 68C515.7 68 515 68.1 515 68.3Z" fill="white"/>
<path d="M464.2 72C460.1 73.7 454.9 78.3 453.6 81.4C452.9 83.1 452.1 86.5 451.7 88.9L451.2 93.3L457.3 87.3C462.8 81.9 467.8 78.2 468.4 79.2C468.5 79.4 469.4 83 470.5 87.2L472.3 94.9L465.4 102.2C461.7 106.2 457.9 110.3 457.1 111.2C456.2 112.2 455.3 113 454.9 113C454.6 113 453.5 110.3 452.6 107C451.7 103.7 450.6 101 450.3 101C449.4 101 450.8 122.2 452.1 128.1C453.5 134.6 460.6 144.1 465.7 146.3C467.8 147.1 471.8 148.1 474.5 148.3C477.3 148.6 482.9 149.6 487 150.5C500.9 153.6 514.6 150.4 520.5 142.6C525.2 136.5 526.1 111.1 522 103C521 101.1 519.7 98.1 519.1 96.5C518.4 94.8 516.1 92 513.9 90.1C510 86.9 509.8 86.8 510.4 89.1C513.7 101.2 516.1 115.4 515 115.8C513.5 116.3 513.8 118 515.4 118C518.4 118 518.8 126.5 516 132C512.6 138.7 501.7 145 493.4 145C489.9 145 489.8 144.9 490.3 142.2C490.6 140.7 491.2 134.4 491.6 128.2L492.3 117L499.9 116.8C506.8 116.6 509.5 116.5 512.5 116.1C513.1 116 511.8 115 509.8 114C507.7 112.8 504.6 109.8 502.6 106.8C500.7 103.9 497.7 100.2 496 98.5L492.9 95.5L493.1 84L493.2 72.5L490.4 71.9C485.9 70.9 466.8 71 464.2 72ZM492 74.6C492 75.8 484.9 84 483 85C481.6 85.7 480 85.1 475.6 82.3L470 78.6L473.3 77.2C475 76.4 479.7 75.5 483.5 75C487.4 74.6 490.8 74.2 491.3 74.1C491.7 74.1 492 74.3 492 74.6ZM474.5 117H479.7L481.3 122.7C482.2 125.9 483.2 130.5 483.6 133C484 135.5 484.8 138.2 485.5 139C486.2 139.8 487.1 141.6 487.5 142.9C488.2 145.2 488.1 145.3 483.9 144.6C481.5 144.2 476.1 142 472 139.6C465.1 135.7 464.2 134.8 461.3 128.9C459.5 125.4 457.8 121 457.4 119.1L456.8 115.7L463 116.3C466.5 116.7 471.6 117 474.5 117Z" fill="white"/>
<path d="M495.2 74.2C493.1 76.3 493.9 77.9 497.9 79C500 79.5 502.8 80.8 504.1 81.8C506.5 83.5 510.7 86 511.3 86C511.4 86 511.5 84.1 511.5 81.7V77.5H507.3C504.4 77.5 502.5 76.8 500.8 75.2C498.1 72.7 496.9 72.5 495.2 74.2Z" fill="white"/>
<path d="M514 88.5C514.7 89.4 515.5 89.8 515.7 89.6C516.4 88.9 515 87 513.8 87C513.2 87 513.2 87.6 514 88.5Z" fill="white"/>
<path d="M528.2 121.2C526.7 123.1 528.4 126 530.1 124.3C530.8 123.6 530.9 122.6 530.3 121.5C529.5 120.2 529.2 120.1 528.2 121.2Z" fill="white"/>
<path d="M363.6 19.1C357.9 20.7 356.6 23.6 360 27C361.4 28.4 363.3 29 366.8 29C374.9 29 378.5 24.5 374 20C371.9 17.9 369 17.7 363.6 19.1Z" fill="white"/>
<path d="M196.3 25.5C192.3 27.4 189 29.1 189 29.5C189 30.2 193.9 28.1 200.5 24.7C207.6 21 204.8 21.5 196.3 25.5Z" fill="white"/>
<path d="M377.1 31.4C375.9 32.8 376.6 35.9 378.1 36.1C382.1 36.6 383.5 36.3 383.8 34.7C384.6 30.9 379.6 28.4 377.1 31.4Z" fill="white"/>
<path d="M365.2 40.7C363.1 41.1 363 41.3 364.3 42.8C366.2 44.9 368 51.4 368 56C368 57.9 368.7 60.3 369.4 61.2C370.9 63.3 376.5 63.6 377.7 61.7C379.8 58.5 380.7 53.7 380 50.4C379.2 47 379.2 46.9 381.1 48.6C382.4 49.8 382.7 50.7 382 51.5C381.2 52.4 381.4 52.9 382.5 53.4C384.9 54.3 384.4 49.7 381.8 47.4C375.8 42.2 375.6 42.1 376.4 46.3C376.8 48.4 377.4 50.8 377.7 51.7C378.1 52.8 377.6 53.1 375.4 52.8C372.8 52.5 372.3 51.8 370.5 46.2C369.4 42.8 368.3 40.1 368 40.1C367.7 40.2 366.5 40.5 365.2 40.7Z" fill="white"/>
<path d="M282.7 44.1C274.5 46.4 275.2 51.9 283.7 52C285.4 52 286.1 51.2 286.6 48.4C287.4 44.1 286.4 43 282.7 44.1Z" fill="white"/>
<path d="M381.3 60.6C378.7 61.9 377.9 63.1 377.1 66.8C376.6 69.4 376.2 71.5 376.3 71.5C376.4 71.5 377.9 72.5 379.7 73.7C381.8 75.2 383.1 75.6 383.5 74.9C384.2 73.9 387 61.4 387 59.8C387 58.6 384.8 58.9 381.3 60.6Z" fill="white"/>
<path d="M29.2999 68.9C24.5999 69.8 21.7999 72.5 22.1999 75.8C22.4999 78.4 22.6999 78.5 29.3999 78.8C39.8999 79.3 42.8999 77.3 42.9999 70.2C42.9999 68.2 42.5999 68 37.7999 68.1C34.8999 68.2 30.9999 68.5 29.2999 68.9Z" fill="white"/>
<path d="M303.3 73.9C298.9 75 295.4 77.5 293.4 80.8C292.5 82.3 290.9 84.8 289.8 86.3C288.1 88.7 285 97.1 285 99.2C285 101.2 288 98.4 289.5 95C293.4 86.4 303.4 80.1 314.7 79.2L321 78.7L322.2 82.1L323.4 85.5L324.6 80C325.3 77 325.8 74.4 325.7 74.4C324.7 73.7 305.7 73.4 303.3 73.9Z" fill="white"/>
<path d="M327.1 77.2C326.1 79.9 327.3 81 331.2 81C333.4 81 334.1 81.7 335.1 84.7C336.7 90 337 90.3 338.6 88.9C341.3 86.7 340.3 82 336.3 78.4C332 74.4 328.3 74 327.1 77.2Z" fill="white"/>
<path d="M162.2 79.1C160.9 79.6 159.5 79.8 159 79.5C158.6 79.3 157.4 80 156.4 81.1C154.8 82.8 154.8 83.3 156 84.1C158.6 85.8 164.2 84.7 165.1 82.4C166.1 79.4 165 78.1 162.2 79.1Z" fill="white"/>
<path d="M161.6 89.1C161.9 89.6 160.7 90 158.9 90C145.7 90 188.1 99 208 100.4C217.7 101.1 214.9 100.3 189 95C177.7 92.7 167.8 90.5 167 90.2C166.2 89.9 167.8 89.3 170.5 88.9C175.2 88.3 175 88.3 168.3 88.3C164.3 88.3 161.3 88.6 161.6 89.1Z" fill="white"/>
<path d="M142.5 97.3C136.7 99.9 133.1 102 134.5 101.9C135.9 101.8 149.7 95.2 148.5 95.1C148 95.1 145.3 96.1 142.5 97.3Z" fill="white"/>
<path d="M38.5 101.3C37.7 102.5 37 104.9 37 106.7C37 109.6 37.3 110 39.5 110C45.6 110 48.4 101.4 42.7 99.9C40.6 99.3 39.7 99.6 38.5 101.3Z" fill="white"/>
<path d="M181.9 106.9C168.3 112.1 167 112.7 167 114C167 114.7 194.6 103.7 195.8 102.5C196.9 101.4 194 102.3 181.9 106.9Z" fill="white"/>
<path d="M296.8 108.4C294.3 110.3 295.6 111 301.7 111C306.3 111 307 110.7 307 109C307 107.3 306.3 107 302.8 107C300.4 107 297.7 107.7 296.8 108.4Z" fill="white"/>
<path d="M193.3 115.4C188.1 117.1 181.9 121.5 179 125.7C174.4 132.4 174.2 144.2 178.7 146.3C183.7 148.6 196.8 143.2 200.7 137.3C202 135.3 202.5 132.6 202.5 127.3C202.5 120.3 202.7 119.9 205.5 118C209.1 115.6 208.5 115.5 200.8 117.6C197.5 118.4 194.3 118.9 193.7 118.7C193 118.5 195 117.7 198 117C201 116.3 204.2 115.4 205 114.9C207.4 113.5 198 114 193.3 115.4Z" fill="white"/>
<path d="M148.5 122.5C146.9 123.3 146.2 123.9 147.1 124C147.9 124 149.5 123.3 150.6 122.5C152.9 120.7 152.4 120.7 148.5 122.5Z" fill="white"/>
<path d="M225.6 178.9C213.1 179.6 210.3 181.3 220.1 182.4C231.5 183.5 235.8 183.2 237 181.1C238.2 178.8 238.3 177.9 237.3 178.2C236.8 178.3 231.6 178.6 225.6 178.9Z" fill="white"/>
<path d="M228.5 195C227.1 197.9 226.1 200.4 226.4 200.7C226.6 201 228.1 198.9 229.5 196C230.9 193.1 231.9 190.6 231.6 190.3C231.4 190 229.9 192.1 228.5 195Z" fill="white"/>
<path d="M40.8 201.4C20.5 205.6 14.3 207.8 29.5 205.4C43.2 203.2 67.9 196.9 62 197.2C61.2 197.2 51.6 199.1 40.8 201.4Z" fill="white"/>
<path d="M548 199.7C548 200.1 549.7 201.6 551.8 202.9C555.4 205.2 555.5 205.2 553.5 203.1C551.3 200.5 548 198.5 548 199.7Z" fill="white"/>
<path d="M220.1 212.7C218.4 215.8 217.2 218.5 217.4 218.7C217.9 219.2 222.7 211.8 223.5 209.2C224.6 205.4 223.3 206.7 220.1 212.7Z" fill="white"/>
<path d="M128.7 211.4C128.4 213.1 127.9 215.2 127.5 216.1C127 217.5 128.7 217.8 141.1 218.3C149 218.7 155.6 218.8 155.8 218.5C157.2 217.1 142.5 210.7 134.3 209.2L129.2 208.3L128.7 211.4Z" fill="white"/>
<path d="M174 210C174 210.5 174.5 211 175.1 211C175.6 211 175.8 210.5 175.5 210C175.2 209.4 174.7 209 174.4 209C174.2 209 174 209.4 174 210Z" fill="white"/>
<path d="M121.6 221.1C123.2 224.3 124.3 224.1 125.5 220.2C126.1 218.3 125.8 218 123 218H119.9L121.6 221.1Z" fill="white"/>
<path d="M326.9 224.1C326 224.6 325.9 231.6 326.4 254.6C326.8 271 327.2 284.6 327.4 284.7C327.5 284.9 332.3 285.3 338 285.6C347.6 286.3 348.3 286.2 347.7 284.6C347.3 283.6 347 281.3 347 279.4V275.9L340.6 276.6C334.6 277.2 334.3 277.1 333.7 274.9C333.3 273.6 333 269.9 333 266.7V261H336.6C339.5 261 340.1 260.7 339.6 259.4C339.3 258.5 339 256.5 339 254.9C339 252.4 338.6 252 336.1 252C333.3 252 333.3 251.9 332.6 244.3C331.6 231.5 331.4 232 336.1 232H340.2L339.5 228.2C339.1 226.2 338.7 224.4 338.7 224.4C337.8 223.8 327.8 223.5 326.9 224.1Z" fill="white"/>
<path d="M123.3 255.2C123.8 278.1 124.2 285.5 125.2 286.2C125.9 286.6 130.6 287 135.5 287H144.5L144.2 282L143.8 277L139.7 277.6C137.4 277.9 134.5 278.3 133.3 278.6C130.5 279.1 129.8 276.8 130.2 268.5C130.5 262.6 130.5 262.5 133.5 262.5C135.2 262.4 136.4 262.1 136.3 261.7C136.1 261.3 136 259.2 136 257C136 253.2 135.8 253 133.1 253C130.4 253 130.1 252.6 129.5 248.7C129.1 246.4 129 242 129.2 239L129.5 233.5L133.3 233.2C136.3 232.9 137 232.5 136.6 231.4C136.3 230.5 136 228.7 136 227.4C136 225.1 135.7 225 129.3 225H122.7L123.3 255.2Z" fill="white"/>
<path d="M470 234.2C470 239.3 469.7 254 469.3 266.8L468.7 290L474.6 289.9C483.7 289.8 490.9 288.5 492.8 286.6C494.1 285.4 494.6 282.5 495.1 275.2L495.6 265.5L495.8 275.7C496 283.8 496.3 286 497.4 286C498.2 286 499.5 286.3 500.4 286.6C501.8 287.1 502 284.6 502.2 262.4C502.3 248.7 502.5 239.5 502.7 241.9C503.1 246.1 503.2 246.2 506.2 245.6L509.2 245L508.9 267.5L508.5 290L510.7 290.1C512 290.2 513.6 290.3 514.3 290.4C515.2 290.5 515.4 285.6 515.1 268.3L514.8 246.1L518.4 245.5C521.8 244.8 522 244.6 522 240.9V237H512.1H502.1L501.8 232.7C501.5 228.7 501.3 228.5 498.2 228.2L494.9 227.9L495.2 243.3L495.5 258.8L493.2 256.4C490.9 254.2 490.8 253.6 491.2 241.5C491.5 229.2 491.4 228.8 489.1 226.9C487.2 225.4 485.2 225 478.4 225H470V234.2ZM483.2 239.5C483.3 243.6 483.4 248.2 483.4 249.7C483.5 251.8 483 252.6 481.4 252.8C479.5 253.1 479.2 252.5 478.7 245.4C477.6 232.6 477.6 232 480.5 232C482.9 232 483 232.2 483.2 239.5ZM483.8 261.2C484.6 262 485 266.1 485 273.2V284H482.1H479.2L478.8 272.7C478.6 266.6 478.6 261.2 478.8 260.7C479.3 259.6 482.5 259.9 483.8 261.2Z" fill="white"/>
<path d="M442.2 258.7L442.5 284.5L446.3 284.8L450 285.1V276.9C450 271.8 450.4 269 450.9 269.5C451.4 270.1 453.5 274.5 455.5 279.5C460.9 292.6 460.5 292.1 464 290.8C465.7 290.3 467.2 289.5 467.5 289C467.8 288.6 465.9 283.9 463.4 278.5L458.9 268.8L461.6 266.4L464.2 263.9L463.5 250.2C462.7 233.1 462.6 233 450.4 233H442L442.2 258.7ZM454.4 245.2C454.7 248.1 455 253.3 455 256.7C455 262.8 454.9 263 452.5 263H450V251.5C450 241 450.2 240 451.9 240C453.4 240 453.8 241 454.4 245.2Z" fill="white"/>
<path d="M145.7 234.7C145.3 235 145 246.7 145 260.6V285.8L147.3 286.4C152.8 287.9 153 287.6 153 279C153 274.6 153.3 271 153.8 271C154.2 271 155.8 274.3 157.4 278.3C159.1 282.2 161.2 287.4 162.2 289.7L164 293.9L167.2 292.5C169 291.8 170.6 290.7 170.8 290.2C171 289.6 169 285 166.5 279.9L161.8 270.7L164.4 268.3C166.7 266.2 167 265.1 167 259.1C167 255.4 166.7 248.9 166.4 244.8C165.7 237.4 165.6 237.2 162.3 235.6C159 234 147 233.3 145.7 234.7ZM157.4 243.6C157.7 244.5 158 249.6 158 255.1C158 265 158 265 155.5 265H153V253.5C153 242.9 153.1 242 154.9 242C155.9 242 157.1 242.7 157.4 243.6Z" fill="white"/>
<path d="M276.5 236.1C272.2 238.7 272.1 239.7 272 262.3V284.2L274.9 287.1C278.8 291 284.5 291.1 288.9 287.4L292 284.8V262.5C292 236.4 291.9 236 283.4 235.3C280.6 235.1 277.6 235.5 276.5 236.1ZM284 263.8C284 273.6 283.7 282 283.3 282.3C283 282.7 282.1 282.5 281.3 281.9C280.3 281 280 276.8 280 264C280 254.9 280.3 247 280.7 246.7C281 246.3 281.9 246 282.7 246C283.7 246 284 249.6 284 263.8Z" fill="white"/>
<path d="M364.1 237.6C362.1 240.1 362 241.5 362 261.7C362 275.1 362.4 283.9 363.1 285.2C364.9 288.5 370.4 290.2 375 289C381.8 287.2 382 286.3 382 261.9C382 241.5 381.9 240.1 379.9 237.6C378.1 235.3 377.1 235 372 235C366.9 235 365.9 235.3 364.1 237.6ZM373.8 263.9C374 280.9 373.9 282.1 372.3 281.8C370.7 281.5 370.5 279.8 370.2 264.5C369.9 246.9 370.2 244.6 372.3 245.2C373.2 245.6 373.6 250.4 373.8 263.9Z" fill="white"/>
<path d="M101 243.4V248H104.6H108.2L107.9 270.2L107.5 292.5L110.9 292.8L114.3 293.1L113.8 270.6L113.3 248H116.5C120 248 121 246.7 121 242.4C121 240.3 120.6 240 117.1 240C115 240 110.5 239.7 107.1 239.4L101 238.7V243.4Z" fill="white"/>
<path d="M228.5 243.9C229 247.4 231.8 252.6 232.6 251.7C232.8 251.5 231.9 248.9 230.5 245.9C228.2 241.2 228 240.9 228.5 243.9Z" fill="white"/>
</svg>
