<?xml version="1.0" standalone="no"?>
<!DOCTYPE svg PUBLIC "-//W3C//DTD SVG 20010904//EN"
 "http://www.w3.org/TR/2001/REC-SVG-20010904/DTD/svg10.dtd">
<svg version="1.0" xmlns="http://www.w3.org/2000/svg"
 width="606.000000pt" height="298.000000pt" viewBox="0 0 606.000000 298.000000"
 preserveAspectRatio="xMidYMid meet">

<g transform="translate(0.000000,298.000000) scale(0.100000,-0.100000)"
fill="#000000" stroke="none">
<path d="M1441 2888 c-7 -40 -27 -116 -44 -168 l-32 -95 -110 -11 c-60 -7
-188 -19 -283 -28 -95 -9 -178 -19 -185 -22 -8 -3 -11 -19 -9 -44 2 -22 2 -40
-1 -40 -4 0 -84 16 -179 35 -206 41 -464 76 -447 61 2 -2 137 -29 299 -60 162
-32 305 -61 316 -66 20 -8 22 -17 26 -149 2 -77 7 -143 10 -147 3 -3 23 5 45
18 65 41 67 42 59 30 -8 -14 -96 -67 -111 -67 -16 0 -127 -67 -121 -72 3 -3
28 9 56 26 28 17 55 31 60 31 7 0 9 -73 8 -207 l-3 -206 -305 0 c-228 0 -275
-2 -185 -7 66 -4 181 -8 255 -9 74 -1 158 -4 187 -7 l52 -7 3 -129 3 -130 64
76 c36 41 67 73 69 71 10 -10 -52 -117 -93 -162 l-44 -48 -1 30 0 30 -28 -32
c-15 -18 -54 -63 -87 -102 l-60 -69 -75 -7 c-127 -13 -178 -25 -80 -20 47 3
142 8 212 11 l126 7 7 -69 c11 -118 37 -319 42 -326 2 -5 19 -9 36 -9 18 -1
25 -3 16 -6 -15 -3 -17 -35 -23 -261 -3 -141 -9 -320 -12 -396 l-6 -139 83 6
c46 4 113 7 147 7 l64 0 -7 63 c-4 34 -8 63 -9 64 -1 1 -39 -4 -84 -11 l-82
-13 0 109 0 110 35 -4 c19 -2 34 0 35 5 0 4 0 30 0 57 l0 50 -39 0 -38 0 -7
115 c-4 64 -4 120 -1 125 3 6 27 10 52 10 l46 0 -7 52 -7 51 146 -6 c163 -6
167 -4 96 50 -50 39 -126 63 -197 63 l-51 0 -6 38 c-22 140 -28 324 -17 520 6
114 13 209 16 211 2 2 34 4 72 3 74 -1 73 3 -3 13 l-50 7 29 15 c87 46 137 55
356 64 118 5 238 10 267 11 l52 3 -37 -38 c-59 -61 -123 -84 -314 -117 -95
-16 -194 -37 -220 -45 -46 -16 -47 -18 -59 -73 -25 -119 -14 -300 28 -453 17
-65 -7 -55 218 -89 218 -32 387 -43 588 -37 l187 5 0 -22 c0 -46 -18 -55 -127
-62 -57 -4 -103 -9 -103 -11 0 -2 16 -21 35 -41 34 -37 35 -37 125 -40 49 -2
90 -7 90 -10 0 -30 -23 -139 -31 -148 -6 -7 -8 -27 -4 -46 6 -35 -37 -403 -48
-415 -4 -3 -7 96 -7 220 l0 227 -25 0 c-14 0 -28 1 -32 3 -7 3 -5 -284 3 -330
4 -18 2 -33 -3 -33 -14 0 -45 274 -47 414 l-1 121 -128 3 -128 3 38 -38 c21
-21 56 -60 78 -87 l40 -49 9 -268 c9 -258 10 -268 30 -273 11 -3 22 -3 24 -1
2 2 6 76 9 164 3 89 7 160 9 159 1 -2 10 -68 20 -148 9 -80 20 -148 23 -152 3
-3 24 -8 46 -10 36 -3 40 0 45 22 4 19 12 25 34 27 37 3 39 5 45 56 6 40 8 42
44 45 36 3 37 2 37 -30 0 -42 9 -54 43 -60 33 -6 33 -15 6 200 -18 149 -19
177 -8 262 l13 95 12 -100 c7 -55 17 -172 24 -260 6 -88 14 -179 16 -202 l5
-43 60 0 59 0 0 35 c0 34 -2 35 -36 35 l-36 0 4 259 c3 240 2 260 -15 279 -11
11 -25 18 -33 15 -8 -3 -16 5 -20 21 -7 30 -43 36 -64 11 -17 -21 -30 -19 -30
5 0 11 6 20 14 20 10 0 15 35 22 149 6 82 8 168 6 190 l-4 41 -104 0 c-63 0
-104 4 -104 10 0 6 40 10 99 10 100 0 117 5 101 29 -6 11 -57 13 -247 12 -241
-2 -401 6 -386 19 4 4 108 47 230 95 123 49 221 90 219 92 -3 4 -352 -120
-450 -160 -32 -14 -53 -27 -45 -29 20 -7 16 -9 -108 -60 -132 -53 -139 -44
-11 17 l89 42 -43 9 -43 9 -32 90 c-53 151 -52 151 122 165 72 5 153 15 181
20 l51 11 7 140 c4 78 5 143 3 146 -3 2 -14 0 -25 -6 -11 -6 -22 -7 -26 -4 -3
4 7 12 24 19 26 12 30 18 30 54 0 23 -3 39 -7 37 -5 -3 -89 -12 -188 -21 -99
-9 -196 -18 -215 -21 l-35 -4 30 24 c37 30 27 32 -26 5 -22 -12 -44 -18 -49
-15 -6 3 -10 37 -10 74 l0 68 118 12 c64 6 145 14 179 18 34 3 60 10 57 14 -3
5 7 9 23 10 24 0 25 1 8 8 -11 5 -90 23 -175 41 -85 18 -162 35 -170 38 -12 3
-13 2 -1 -6 7 -5 72 -25 142 -43 71 -18 129 -36 129 -39 0 -7 -301 -42 -307
-36 -3 2 -1 62 4 133 l8 128 301 0 c233 0 304 3 317 13 16 14 44 157 73 376 3
22 12 53 20 69 9 16 14 31 12 33 -3 2 -71 -17 -152 -42 -81 -25 -209 -58 -284
-73 l-137 -27 -9 158 c-4 87 -11 158 -15 158 -4 0 -13 -33 -20 -72z m392 -363
c22 -81 22 -82 -20 -88 -49 -9 -179 -9 -265 0 l-68 6 0 48 c0 27 1 50 3 51 3
2 297 15 322 14 13 -1 23 -11 28 -31z m-535 -5 c-17 -27 -96 -68 -147 -76 -48
-8 -74 -35 -115 -124 -27 -58 -41 -117 -77 -320 -30 -170 -40 -188 -34 -60 2
58 8 186 11 285 3 99 8 183 10 187 2 3 14 4 27 2 20 -4 20 -4 -3 8 -35 17 -34
16 -20 33 17 20 124 52 235 69 128 20 128 20 113 -4z m12 -500 c-8 -5 -24 -9
-35 -9 -16 1 -16 2 5 9 35 11 48 11 30 0z m-501 -756 l1 -41 -82 -5 c-46 -3
-84 -4 -86 -3 -2 1 32 32 75 68 87 72 90 72 92 -19z m1574 -598 c6 -16 -2 -28
-14 -20 -12 7 -11 34 0 34 5 0 11 -6 14 -14z m-154 -348 c1 -22 -4 -28 -19
-28 -23 0 -25 31 -13 155 l7 70 12 -85 c7 -47 13 -97 13 -112z"/>
<path d="M2725 2886 c-16 -7 -59 -32 -94 -55 -35 -22 -72 -41 -82 -41 -9 0
-36 -16 -59 -35 -23 -19 -46 -35 -50 -35 -5 0 -20 -4 -33 -9 l-25 -10 14 -73
c8 -40 25 -107 40 -150 23 -70 28 -77 44 -68 29 16 35 12 15 -10 -12 -14 -22
-17 -30 -10 -8 6 -87 -21 -251 -86 -131 -53 -241 -98 -244 -101 -10 -11 128 8
196 26 85 24 191 71 251 111 24 17 48 30 52 30 22 0 146 -428 129 -445 -3 -3
-83 -28 -178 -55 -167 -48 -201 -60 -167 -60 18 0 314 88 338 101 14 7 17 -16
23 -219 4 -125 10 -245 14 -267 l8 -40 48 115 c26 63 58 135 70 160 13 25 26
58 30 74 4 15 9 26 12 23 3 -3 -16 -80 -42 -172 -39 -138 -53 -174 -83 -210
-26 -32 -37 -40 -41 -30 -3 9 -22 -18 -48 -70 -45 -91 -46 -95 -34 -95 5 0 23
32 42 70 19 39 37 70 42 70 4 0 8 -17 8 -39 0 -21 3 -53 6 -70 6 -31 6 -31
-36 -31 -36 0 -47 -6 -81 -41 -21 -22 -39 -46 -39 -52 1 -7 11 0 23 16 17 20
32 27 57 27 53 0 80 10 80 30 0 19 52 30 139 30 61 0 39 -14 -56 -36 -68 -15
-73 -18 -73 -43 0 -42 57 -312 69 -324 6 -6 30 9 72 49 69 66 68 59 -5 -35
-41 -52 -52 -61 -60 -49 -9 13 -24 3 -86 -55 -64 -59 -71 -69 -47 -65 33 6 26
33 72 -277 45 -307 38 -280 75 -280 36 0 29 -26 70 285 16 124 32 237 35 253
4 25 2 27 -29 27 l-33 0 -18 -122 c-28 -187 -28 -188 -54 -20 -19 124 -26 152
-39 152 -12 0 -5 11 20 37 34 33 39 36 50 21 10 -12 42 -17 153 -22 146 -6
204 -14 186 -25 -11 -7 2 -552 14 -571 3 -6 15 -10 26 -10 18 0 19 8 21 118 0
64 3 101 5 82 9 -80 48 -120 117 -120 81 0 116 42 116 140 l0 60 -45 0 -45 0
0 -54 c0 -60 -15 -80 -37 -50 -10 14 -13 58 -11 194 3 167 4 175 23 175 16 0
21 -8 23 -37 3 -38 4 -38 48 -38 l44 0 0 69 c0 54 -4 74 -21 95 -21 26 -21 27
-3 94 24 93 44 129 104 187 62 61 120 179 157 320 13 49 42 126 80 213 4 9
-37 12 -188 12 l-194 0 -17 30 c-9 17 -23 30 -30 30 -7 0 -30 9 -51 20 -34 18
-45 19 -96 10 -32 -6 -66 -8 -75 -4 -9 3 -16 1 -16 -5 0 -6 -8 -11 -17 -11
-17 1 -17 1 0 11 15 9 17 19 11 72 -9 81 -18 98 -34 66 -7 -13 -23 -35 -35
-49 -13 -14 -25 -34 -27 -45 -2 -11 -10 -20 -18 -20 -8 0 -13 7 -11 15 19 73
28 97 41 111 8 10 24 30 34 45 l20 28 11 -27 11 -27 35 36 34 36 -42 -7 c-46
-7 -43 -12 -64 88 -12 58 -23 71 -33 39 -4 -10 -22 -34 -41 -53 -19 -18 -35
-39 -35 -45 0 -17 -63 -100 -67 -88 -9 27 106 314 125 314 5 0 14 -22 21 -50
7 -27 17 -50 21 -50 11 0 27 52 36 115 7 49 6 50 -13 33 -10 -10 -29 -19 -42
-20 -20 -3 -26 6 -50 72 -15 41 -38 94 -50 118 -17 33 -30 103 -57 299 -19
141 -34 260 -34 264 0 12 -9 11 -45 -5z m325 -1321 c0 -35 8 -43 26 -26 5 5
18 12 29 15 18 5 21 2 19 -21 -1 -16 -2 -31 -3 -35 -2 -15 -62 -8 -67 7 -4 8
-10 15 -15 15 -5 0 -9 -7 -9 -15 0 -8 7 -15 15 -15 10 0 15 -11 15 -35 0 -40
-8 -43 -38 -15 -28 26 -31 113 -5 142 24 27 33 22 33 -17z m270 -49 c0 -19 -4
-22 -25 -18 -28 5 -31 12 -13 30 19 19 38 14 38 -12z m-66 -29 c-6 -18 -3 -19
40 -15 26 3 46 1 46 -4 0 -5 -4 -6 -10 -3 -6 4 -10 -6 -10 -22 -1 -46 -21 -63
-74 -63 -51 0 -55 6 -26 43 24 30 26 47 5 47 -8 0 -15 8 -15 18 0 25 7 31 31
25 14 -4 18 -11 13 -26z m-114 -99 c25 -7 47 -13 49 -15 2 -1 -10 -26 -26 -55
-17 -29 -35 -70 -42 -90 -7 -20 -18 -41 -25 -47 -11 -9 -15 7 -21 86 -3 54 -9
109 -12 122 -5 20 -3 23 13 18 10 -3 39 -12 64 -19z m425 -28 c22 -11 29 -17
15 -14 -38 10 -87 32 -70 33 8 0 33 -8 55 -19z"/>
<path d="M3653 2883 l-33 -4 1 -62 c1 -55 2 -58 10 -30 7 23 20 37 53 53 43
21 46 21 133 5 103 -19 164 -35 177 -46 10 -9 11 -15 22 -125 6 -65 4 -74 -15
-93 -22 -22 -27 -56 -12 -79 9 -15 43 56 90 190 17 47 39 106 50 131 l19 44
-66 6 c-96 9 -391 16 -429 10z"/>
<path d="M2913 2830 c-32 -13 -44 -42 -47 -115 -4 -84 10 -105 69 -105 36 0
48 5 69 31 26 31 29 44 26 114 -3 68 -54 100 -117 75z"/>
<path d="M5135 2783 c-16 -2 -95 -15 -175 -28 -80 -13 -176 -27 -215 -31 -79
-8 -104 -18 -192 -80 -34 -24 -89 -62 -122 -84 -34 -22 -61 -45 -61 -51 0 -6
-20 -42 -45 -80 -61 -95 -81 -135 -93 -196 -6 -28 -30 -100 -53 -160 -55 -143
-69 -196 -69 -266 l0 -57 -57 29 c-32 16 -98 43 -148 60 -49 18 -91 34 -93 35
-4 5 54 179 68 207 10 18 6 19 -80 19 -88 0 -91 1 -100 26 -6 14 -10 27 -10
30 0 3 33 2 73 -1 97 -8 129 2 140 44 5 20 4 38 -1 43 -5 5 -39 14 -75 21 -79
13 -78 12 -70 149 6 94 5 100 -18 124 -13 13 -43 30 -67 36 l-44 11 7 46 c6
42 5 44 -8 27 -13 -18 -14 -15 -10 35 3 37 1 49 -5 39 -14 -22 -27 -134 -15
-127 16 10 39 -41 25 -55 -9 -9 -12 -6 -12 15 0 41 -18 32 -30 -15 -16 -64
-40 -114 -65 -138 -20 -19 -24 -19 -58 -5 -61 25 -152 20 -223 -14 -34 -16
-64 -34 -68 -39 -4 -6 -22 -8 -41 -5 -28 4 -38 1 -61 -23 -24 -26 -26 -27 -22
-7 6 21 5 21 -19 6 -28 -19 -29 -59 0 -56 13 1 17 -4 13 -14 -4 -8 -9 -27 -13
-41 -5 -22 -4 -25 8 -16 8 7 22 8 34 3 32 -12 33 -12 61 44 14 28 34 60 43 71
28 32 84 53 156 60 60 5 75 3 103 -14 17 -11 32 -24 32 -29 0 -4 -12 -30 -26
-55 -18 -33 -23 -51 -16 -58 7 -7 12 -1 17 20 3 16 31 61 61 98 31 38 67 88
81 112 26 44 38 54 29 25 -2 -10 -7 -44 -11 -77 l-7 -58 -30 6 c-23 4 -34 1
-44 -11 -19 -26 -18 -28 18 -31 46 -4 52 -13 39 -72 -15 -70 -15 -68 24 -76
19 -3 35 -10 35 -15 0 -5 11 -15 25 -21 37 -17 30 -28 -17 -28 -67 0 -88 -9
-88 -36 0 -17 -4 -22 -15 -18 -9 4 -15 0 -15 -10 0 -24 -31 -96 -41 -96 -5 0
-9 9 -9 20 0 52 -50 98 -92 84 -19 -6 -19 -5 -3 20 9 14 15 31 13 38 -2 6 -13
-9 -24 -35 -23 -58 -38 -64 -75 -33 -62 53 -183 41 -226 -23 -31 -46 -29 -60
5 -28 25 24 36 27 107 28 46 1 89 -3 102 -9 12 -7 28 -9 36 -6 8 3 17 -2 21
-11 4 -13 1 -15 -13 -10 -16 5 -23 -6 -47 -67 -16 -40 -39 -85 -53 -100 -16
-20 -25 -47 -30 -88 -4 -33 -4 -60 0 -60 13 0 49 52 56 79 3 14 13 40 21 56 9
17 15 36 13 44 -1 8 2 10 11 5 7 -5 19 -9 26 -10 31 -5 42 -15 61 -55 l21 -42
-33 -41 c-17 -22 -35 -42 -39 -44 -30 -13 15 -20 170 -26 221 -8 231 -6 249
59 20 70 23 78 28 73 3 -3 12 -63 20 -133 8 -71 26 -178 39 -239 13 -61 27
-133 30 -160 3 -27 17 -68 30 -91 l23 -42 -26 -11 -26 -12 28 6 c55 10 57 1
57 -225 1 -173 3 -203 14 -189 11 15 14 4 19 -80 4 -53 7 -181 7 -284 l0 -188
45 0 45 0 0 119 c0 65 3 132 6 148 5 26 9 28 40 25 l34 -4 0 51 0 51 -45 0
-45 0 0 90 c0 50 4 90 9 90 14 0 51 -64 51 -88 0 -11 5 -24 10 -27 15 -10 12
217 -5 310 -8 44 -14 81 -15 83 0 1 -7 2 -17 2 -29 0 -4 13 31 17 53 5 66 -21
66 -134 0 -76 4 -100 23 -135 l22 -43 5 93 5 94 80 30 c44 17 82 32 84 34 2 2
-3 12 -13 23 -16 17 -13 20 69 70 48 28 89 51 93 51 4 0 -25 -32 -63 -70 l-70
-71 25 -19 c13 -10 54 -33 90 -52 36 -18 67 -34 70 -36 2 -2 -14 -21 -38 -43
l-42 -40 -22 20 c-46 44 -142 39 -190 -10 l-29 -29 3 -226 3 -226 33 -29 c28
-25 40 -29 90 -29 68 0 98 17 119 68 12 28 14 78 12 246 l-3 211 47 33 c34 25
45 38 38 46 -7 9 21 43 99 121 60 60 112 107 114 104 10 -10 -62 -105 -127
-167 l-66 -63 27 -10 c154 -59 436 -69 607 -23 86 23 84 24 117 -34 l31 -53
-22 -23 c-15 -16 -25 -45 -31 -87 -9 -62 -9 -64 47 -193 43 -99 57 -143 57
-181 1 -44 -2 -50 -19 -50 -17 0 -20 8 -23 48 -3 46 -4 47 -38 47 l-34 0 0
-66 c0 -59 3 -68 29 -94 98 -98 220 3 181 150 -7 25 -39 101 -71 170 -63 132
-73 185 -35 185 15 0 21 -8 24 -35 2 -19 7 -37 12 -40 5 -3 28 -50 52 -105 39
-90 43 -97 46 -67 2 23 -7 51 -32 96 -40 72 -42 78 -21 70 12 -5 15 5 15 60 0
53 -4 70 -20 86 -25 25 -68 43 -87 36 -8 -4 -24 16 -43 54 l-30 60 33 13 c64
27 126 73 157 116 l32 44 -28 24 -29 25 32 -21 31 -21 35 42 c48 60 62 91 81
182 9 44 18 81 20 83 2 3 55 -27 117 -66 62 -39 115 -69 117 -66 12 11 -13 61
-50 101 -44 48 -105 87 -151 98 -21 5 -27 11 -23 24 7 22 47 334 44 338 -2 1
-19 9 -38 18 l-35 16 35 -5 c19 -3 37 -10 39 -16 3 -9 83 -49 97 -49 17 0 -16
25 -53 42 l-45 20 7 45 c3 25 6 144 6 264 0 216 1 220 22 231 12 5 45 37 72
69 28 33 70 74 95 91 72 49 24 26 -85 -41 -54 -33 -102 -61 -106 -61 -3 0 -9
28 -13 61 -4 39 -19 88 -41 134 l-34 72 -86 41 c-111 54 -125 54 -125 2 0 -22
-4 -40 -8 -40 -4 0 -23 15 -40 33 -28 29 -31 38 -25 68 3 19 13 39 21 45 12 8
2 14 -45 27 -56 16 -215 21 -298 10z m328 -277 c26 -5 37 -12 36 -24 -1 -30
-44 -137 -54 -135 -6 1 -43 8 -83 14 -40 7 -75 15 -77 19 -7 11 33 121 51 141
14 15 20 16 52 5 21 -7 54 -16 75 -20z m-460 -172 c39 -20 74 -40 77 -45 3 -4
21 -11 40 -14 19 -3 52 -14 73 -24 l38 -19 10 24 c5 14 12 36 15 49 7 30 7 30
77 6 96 -33 95 -30 42 -95 l-47 -58 30 -32 c41 -42 78 -119 91 -188 5 -31 15
-124 22 -207 11 -146 10 -152 -11 -196 -53 -109 -214 -182 -354 -161 -40 6
-46 10 -46 31 0 34 -15 39 -30 10 -16 -30 -23 -30 -126 -5 -107 25 -182 59
-233 105 -63 57 -78 90 -86 182 l-8 82 29 -2 c23 -2 30 3 32 20 3 17 -2 22
-25 25 l-28 3 2 93 c3 152 42 303 93 357 15 17 30 37 32 45 3 10 34 20 94 31
122 23 116 23 197 -17z m-1385 -37 c7 -15 12 -42 10 -60 l-4 -32 -22 45 c-24
50 -28 84 -9 78 6 -3 18 -17 25 -31z m-518 -35 c0 -5 -9 -17 -20 -27 -22 -20
-26 -14 -10 16 11 19 30 26 30 11z m650 -258 c11 -37 20 -76 20 -89 0 -12 7
-28 15 -35 17 -14 20 -30 5 -30 -5 0 -10 7 -10 16 0 12 -7 14 -27 10 -16 -3
-41 1 -58 9 l-30 15 42 -6 42 -6 -6 39 c-3 21 -11 64 -18 95 -16 76 -1 64 25
-18z m-367 -16 c32 -18 36 -27 43 -90 7 -65 17 -73 33 -26 14 40 20 34 13 -14
-2 -24 -9 -38 -19 -38 -8 0 -21 -17 -29 -37 l-16 -36 -18 41 c-18 41 -60 70
-81 56 -14 -8 -11 3 12 48 17 34 25 59 28 101 1 10 8 9 34 -5z m392 -138 c3
-5 13 -10 22 -10 9 0 83 -26 165 -57 l149 -57 -7 -156 c-7 -168 6 -271 47
-366 11 -26 18 -48 17 -49 -5 -4 -187 -55 -197 -55 -10 0 -51 122 -51 152 0 9
-11 49 -24 89 -13 41 -31 133 -40 204 -8 72 -24 153 -35 180 -11 28 -23 59
-27 70 -7 19 -8 19 -11 -2 -6 -33 -23 -28 -23 6 0 16 -3 36 -6 45 -7 17 11 22
21 6z m555 -82 c0 -39 14 -70 55 -124 32 -42 36 -54 32 -87 -3 -21 -13 -47
-22 -57 -10 -11 -14 -26 -10 -38 8 -28 -9 -35 -68 -27 -79 10 -87 19 -97 120
-5 48 -16 98 -24 111 -22 32 -20 35 9 22 14 -6 28 -23 31 -37 18 -79 26 -101
38 -101 17 0 26 45 26 135 0 89 9 142 21 123 5 -7 9 -25 9 -40z m-110 -58 c8
-5 12 -11 9 -14 -3 -3 -14 1 -25 9 -21 16 -8 20 16 5z m1550 -377 c0 -39 -14
-43 -58 -17 -23 14 -42 27 -42 30 0 2 23 4 50 4 41 0 50 -3 50 -17z m-1330
-107 c0 -2 -57 -23 -126 -46 l-127 -43 97 -95 c53 -52 96 -96 96 -97 0 -3
-120 -75 -126 -75 -2 0 -4 31 -4 70 l0 69 -36 7 c-36 7 -181 -2 -208 -12 -9
-3 -16 2 -20 15 -3 12 -8 29 -11 40 -4 14 1 20 27 25 75 14 178 50 178 61 0 6
53 28 118 47 116 36 142 42 142 34z m867 -288 c58 -78 95 -145 84 -152 -6 -4
-16 4 -24 16 -36 59 -107 181 -107 184 0 11 11 -1 47 -48z m-1247 -67 c5 -11
10 -40 10 -65 l0 -46 -39 0 c-37 0 -39 1 -45 40 -10 63 1 90 35 90 18 0 32 -7
39 -19z m398 -420 c-3 -158 -4 -166 -23 -166 -19 0 -20 8 -23 169 -3 173 3
201 35 174 10 -8 13 -50 11 -177z"/>
<path d="M5368 2469 c-63 -32 -41 -69 41 -69 31 0 43 5 52 22 10 19 8 25 -15
45 -32 27 -31 27 -78 2z"/>
<path d="M4760 2295 c0 -20 5 -25 23 -25 33 0 40 10 20 32 -23 26 -43 23 -43
-7z"/>
<path d="M5300 2277 c0 -1 -4 -17 -10 -36 l-9 -34 24 23 c28 26 33 50 10 50
-8 0 -15 -1 -15 -3z"/>
<path d="M4792 2240 c-41 -17 -93 -63 -106 -94 -7 -17 -15 -51 -19 -75 l-5
-44 61 60 c55 54 105 91 111 81 1 -2 10 -38 21 -80 l18 -77 -69 -73 c-37 -40
-75 -81 -83 -90 -9 -10 -18 -18 -22 -18 -3 0 -14 27 -23 60 -9 33 -20 60 -23
60 -9 0 5 -212 18 -271 14 -65 85 -160 136 -182 21 -8 61 -18 88 -20 28 -3 84
-13 125 -22 139 -31 276 1 335 79 47 61 56 315 15 396 -10 19 -23 49 -29 65
-7 17 -30 45 -52 64 -39 32 -41 33 -35 10 33 -121 57 -263 46 -267 -15 -5 -12
-22 4 -22 30 0 34 -85 6 -140 -34 -67 -143 -130 -226 -130 -35 0 -36 1 -31 28
3 15 9 78 13 140 l7 112 76 2 c69 2 96 3 126 7 6 1 -7 11 -27 21 -21 12 -52
42 -72 72 -19 29 -49 66 -66 83 l-31 30 2 115 1 115 -28 6 c-45 10 -236 9
-262 -1z m278 -26 c0 -12 -71 -94 -90 -104 -14 -7 -30 -1 -74 27 l-56 37 33
14 c17 8 64 17 102 22 39 4 73 8 78 9 4 0 7 -2 7 -5z m-175 -424 l52 0 16 -57
c9 -32 19 -78 23 -103 4 -25 12 -52 19 -60 7 -8 16 -26 20 -39 7 -23 6 -24
-36 -17 -24 4 -78 26 -119 50 -69 39 -78 48 -107 107 -18 35 -35 79 -39 98
l-6 34 62 -6 c35 -4 86 -7 115 -7z"/>
<path d="M5102 2218 c-21 -21 -13 -37 27 -48 21 -5 49 -18 62 -28 24 -17 66
-42 72 -42 1 0 2 19 2 43 l0 42 -42 0 c-29 0 -48 7 -65 23 -27 25 -39 27 -56
10z"/>
<path d="M5290 2075 c7 -9 15 -13 17 -11 7 7 -7 26 -19 26 -6 0 -6 -6 2 -15z"/>
<path d="M5432 1748 c-15 -19 2 -48 19 -31 7 7 8 17 2 28 -8 13 -11 14 -21 3z"/>
<path d="M3786 2769 c-57 -16 -70 -45 -36 -79 14 -14 33 -20 68 -20 81 0 117
45 72 90 -21 21 -50 23 -104 9z"/>
<path d="M2113 2705 c-40 -19 -73 -36 -73 -40 0 -7 49 14 115 48 71 37 43 32
-42 -8z"/>
<path d="M3921 2646 c-12 -14 -5 -45 10 -47 40 -5 54 -2 57 14 8 38 -42 63
-67 33z"/>
<path d="M3802 2553 c-21 -4 -22 -6 -9 -21 19 -21 37 -86 37 -132 0 -19 7 -43
14 -52 15 -21 71 -24 83 -5 21 32 30 80 23 113 -8 34 -8 35 11 18 13 -12 16
-21 9 -29 -8 -9 -6 -14 5 -19 24 -9 19 37 -7 60 -60 52 -62 53 -54 11 4 -21
10 -45 13 -54 4 -11 -1 -14 -23 -11 -26 3 -31 10 -49 66 -11 34 -22 61 -25 61
-3 -1 -15 -4 -28 -6z"/>
<path d="M2977 2519 c-82 -23 -75 -78 10 -79 17 0 24 8 29 36 8 43 -2 54 -39
43z"/>
<path d="M3963 2354 c-26 -13 -34 -25 -42 -62 -5 -26 -9 -47 -8 -47 1 0 16
-10 34 -22 21 -15 34 -19 38 -12 7 10 35 135 35 151 0 12 -22 9 -57 -8z"/>
<path d="M443 2271 c-47 -9 -75 -36 -71 -69 3 -26 5 -27 72 -30 105 -5 135 15
136 86 0 20 -4 22 -52 21 -29 -1 -68 -4 -85 -8z"/>
<path d="M3183 2221 c-44 -11 -79 -36 -99 -69 -9 -15 -25 -40 -36 -55 -17 -24
-48 -108 -48 -129 0 -20 30 8 45 42 39 86 139 149 252 158 l63 5 12 -34 12
-34 12 55 c7 30 12 56 11 56 -10 7 -200 10 -224 5z"/>
<path d="M3421 2188 c-10 -27 2 -38 41 -38 22 0 29 -7 39 -37 16 -53 19 -56
35 -42 27 22 17 69 -23 105 -43 40 -80 44 -92 12z"/>
<path d="M1772 2169 c-13 -5 -27 -7 -32 -4 -4 2 -16 -5 -26 -16 -16 -17 -16
-22 -4 -30 26 -17 82 -6 91 17 10 30 -1 43 -29 33z"/>
<path d="M1766 2069 c3 -5 -9 -9 -27 -9 -132 0 292 -90 491 -104 97 -7 69 1
-190 54 -113 23 -212 45 -220 48 -8 3 8 9 35 13 47 6 45 6 -22 6 -40 0 -70 -3
-67 -8z"/>
<path d="M1575 1987 c-58 -26 -94 -47 -80 -46 14 1 152 67 140 68 -5 0 -32
-10 -60 -22z"/>
<path d="M535 1947 c-8 -12 -15 -36 -15 -54 0 -29 3 -33 25 -33 61 0 89 86 32
101 -21 6 -30 3 -42 -14z"/>
<path d="M1969 1891 c-136 -52 -149 -58 -149 -71 0 -7 276 103 288 115 11 11
-18 2 -139 -44z"/>
<path d="M3118 1876 c-25 -19 -12 -26 49 -26 46 0 53 3 53 20 0 17 -7 20 -42
20 -24 0 -51 -7 -60 -14z"/>
<path d="M2083 1806 c-52 -17 -114 -61 -143 -103 -46 -67 -48 -185 -3 -206 50
-23 181 31 220 90 13 20 18 47 18 100 0 70 2 74 30 93 36 24 30 25 -47 4 -33
-8 -65 -13 -71 -11 -7 2 13 10 43 17 30 7 62 16 70 21 24 14 -70 9 -117 -5z"/>
<path d="M1635 1735 c-16 -8 -23 -14 -14 -15 8 0 24 7 35 15 23 18 18 18 -21
0z"/>
<path d="M2406 1171 c-125 -7 -153 -24 -55 -35 114 -11 157 -8 169 13 12 23
13 32 3 29 -5 -1 -57 -4 -117 -7z"/>
<path d="M2435 1010 c-14 -29 -24 -54 -21 -57 2 -3 17 18 31 47 14 29 24 54
21 57 -2 3 -17 -18 -31 -47z"/>
<path d="M558 946 c-203 -42 -265 -64 -113 -40 137 22 384 85 325 82 -8 0
-104 -19 -212 -42z"/>
<path d="M5630 963 c0 -4 17 -19 38 -32 36 -23 37 -23 17 -2 -22 26 -55 46
-55 34z"/>
<path d="M2351 833 c-17 -31 -29 -58 -27 -60 5 -5 53 69 61 95 11 38 -2 25
-34 -35z"/>
<path d="M1437 846 c-3 -17 -8 -38 -12 -47 -5 -14 12 -17 136 -22 79 -4 145
-5 147 -2 14 14 -133 78 -215 93 l-51 9 -5 -31z"/>
<path d="M1890 860 c0 -5 5 -10 11 -10 5 0 7 5 4 10 -3 6 -8 10 -11 10 -2 0
-4 -4 -4 -10z"/>
<path d="M1366 749 c16 -32 27 -30 39 9 6 19 3 22 -25 22 l-31 0 17 -31z"/>
<path d="M3419 719 c-9 -5 -10 -75 -5 -305 4 -164 8 -300 10 -301 1 -2 49 -6
106 -9 96 -7 103 -6 97 10 -4 10 -7 33 -7 52 l0 35 -64 -7 c-60 -6 -63 -5 -69
17 -4 13 -7 50 -7 82 l0 57 36 0 c29 0 35 3 30 16 -3 9 -6 29 -6 45 0 25 -4
29 -29 29 -28 0 -28 1 -35 77 -10 128 -12 123 35 123 l41 0 -7 38 c-4 20 -8
38 -8 38 -9 6 -109 9 -118 3z"/>
<path d="M1383 408 c5 -229 9 -303 19 -310 7 -4 54 -8 103 -8 l90 0 -3 50 -4
50 -41 -6 c-23 -3 -52 -7 -64 -10 -28 -5 -35 18 -31 101 3 59 3 60 33 60 17 1
29 4 28 8 -2 4 -3 25 -3 47 0 38 -2 40 -29 40 -27 0 -30 4 -36 43 -4 23 -5 67
-3 97 l3 55 38 3 c30 3 37 7 33 18 -3 9 -6 27 -6 40 0 23 -3 24 -67 24 l-66 0
6 -302z"/>
<path d="M4850 618 c0 -51 -3 -198 -7 -326 l-6 -232 59 1 c91 1 163 14 182 33
13 12 18 41 23 114 l5 97 2 -102 c2 -81 5 -103 16 -103 8 0 21 -3 30 -6 14 -5
16 20 18 242 1 137 3 229 5 205 4 -42 5 -43 35 -37 l30 6 -3 -225 -4 -225 22
-1 c13 -1 29 -2 36 -3 9 -1 11 48 8 221 l-3 222 36 6 c34 7 36 9 36 46 l0 39
-99 0 -100 0 -3 43 c-3 40 -5 42 -36 45 l-33 3 3 -154 3 -155 -23 24 c-23 22
-24 28 -20 149 3 123 2 127 -21 146 -19 15 -39 19 -107 19 l-84 0 0 -92z m132
-53 c1 -41 2 -87 2 -102 1 -21 -4 -29 -20 -31 -19 -3 -22 3 -27 74 -11 128
-11 134 18 134 24 0 25 -2 27 -75z m6 -217 c8 -8 12 -49 12 -120 l0 -108 -29
0 -29 0 -4 113 c-2 61 -2 115 0 120 5 11 37 8 50 -5z"/>
<path d="M4572 373 l3 -258 38 -3 37 -3 0 82 c0 51 4 79 9 74 5 -6 26 -50 46
-100 54 -131 50 -126 85 -113 17 5 32 13 35 18 3 4 -16 51 -41 105 l-45 97 27
24 26 25 -7 137 c-8 171 -9 172 -131 172 l-84 0 2 -257z m122 135 c3 -29 6
-81 6 -115 0 -61 -1 -63 -25 -63 l-25 0 0 115 c0 105 2 115 19 115 15 0 19
-10 25 -52z"/>
<path d="M1607 613 c-4 -3 -7 -120 -7 -259 l0 -252 23 -6 c55 -15 57 -12 57
74 0 44 3 80 8 80 4 0 20 -33 36 -73 17 -39 38 -91 48 -114 l18 -42 32 14 c18
7 34 18 36 23 2 6 -18 52 -43 103 l-47 92 26 24 c23 21 26 32 26 92 0 37 -3
102 -6 143 -7 74 -8 76 -41 92 -33 16 -153 23 -166 9z m117 -89 c3 -9 6 -60 6
-115 0 -99 0 -99 -25 -99 l-25 0 0 115 c0 106 1 115 19 115 10 0 22 -7 25 -16z"/>
<path d="M2915 599 c-43 -26 -44 -36 -45 -262 l0 -219 29 -29 c39 -39 96 -40
140 -3 l31 26 0 223 c0 261 -1 265 -86 272 -28 2 -58 -2 -69 -8z m75 -277 c0
-98 -3 -182 -7 -185 -3 -4 -12 -2 -20 4 -10 9 -13 51 -13 179 0 91 3 170 7
173 3 4 12 7 20 7 10 0 13 -36 13 -178z"/>
<path d="M3791 584 c-20 -25 -21 -39 -21 -241 0 -134 4 -222 11 -235 18 -33
73 -50 119 -38 68 18 70 27 70 271 0 204 -1 218 -21 243 -18 23 -28 26 -79 26
-51 0 -61 -3 -79 -26z m97 -263 c2 -170 1 -182 -15 -179 -16 3 -18 20 -21 173
-3 176 0 199 21 193 9 -4 13 -52 15 -187z"/>
<path d="M1160 526 l0 -46 36 0 36 0 -3 -222 -4 -223 34 -3 34 -3 -5 225 -5
226 32 0 c35 0 45 13 45 56 0 21 -4 24 -39 24 -21 0 -66 3 -100 6 l-61 7 0
-47z"/>
<path d="M2435 521 c5 -35 33 -87 41 -78 2 2 -7 28 -21 58 -23 47 -25 50 -20
20z"/>
</g>
</svg>
